<svg width="90" height="36" viewBox="0 0 90 36" fill="none" xmlns="http://www.w3.org/2000/svg">
<mask id="mask0_14147_242643" style="mask-type:luminance" maskUnits="userSpaceOnUse" x="0" y="0" width="90" height="35">
<path d="M0 0H90V34.8444H0V0Z" fill="white"/>
</mask>
<g mask="url(#mask0_14147_242643)">
<path d="M90 1.95964e-06H85.0296C83.6496 1.95964e-06 82.3608 0.684002 81.5856 1.824L74.9376 11.6328C74.8967 11.6929 74.8416 11.7422 74.7773 11.7762C74.713 11.8102 74.6414 11.828 74.5686 11.828C74.4958 11.828 74.4242 11.8102 74.3599 11.7762C74.2956 11.7422 74.2405 11.6929 74.1996 11.6328L67.5516 1.8252C67.1709 1.26252 66.6579 0.801857 66.0576 0.483633C65.4574 0.165408 64.7882 -0.000658045 64.1088 1.95964e-06H59.1372L70.9812 17.472L59.2032 34.8444H64.1748C65.5536 34.8444 66.8424 34.1616 67.6164 33.0204L74.1996 23.3088C74.2405 23.2484 74.2956 23.199 74.36 23.1648C74.4244 23.1306 74.4963 23.1127 74.5692 23.1127C74.6421 23.1127 74.714 23.1306 74.7784 23.1648C74.8428 23.199 74.8979 23.2484 74.9388 23.3088L81.5208 33.0204C81.9018 33.583 82.415 34.0436 83.0155 34.3616C83.616 34.6796 84.2853 34.8454 84.9648 34.8444H89.9352L78.1572 17.472L90 1.95964e-06ZM48.9096 3.564V34.8444H51.2856C52.2308 34.8444 53.1374 34.4689 53.8057 33.8005C54.4741 33.1321 54.8496 32.2256 54.8496 31.2804V1.95964e-06H52.4736C51.5284 1.95964e-06 50.6219 0.375494 49.9535 1.04387C49.2851 1.71225 48.9096 2.61877 48.9096 3.564ZM44.5512 1.95964e-06H42.4368C41.3065 -0.000972905 40.2095 0.382576 39.3261 1.08762C38.4427 1.79266 37.8254 2.77726 37.5756 3.8796L32.8452 24.6732L28.7052 5.2632C27.9396 1.6752 24.258 -0.743998 20.4912 0.296402C18.0924 0.958802 16.314 2.9856 15.7944 5.4204L11.6964 24.648L6.9756 3.8808C6.724 2.77887 6.10589 1.79493 5.22239 1.08996C4.33889 0.384991 3.24229 0.000716237 2.112 1.95964e-06H0L7.9248 34.8432H10.9272C12.2495 34.8436 13.5319 34.39 14.5598 33.5582C15.5878 32.7264 16.2989 31.5669 16.5744 30.2736L21.6396 6.5016C21.6711 6.35825 21.7504 6.22985 21.8644 6.13742C21.9784 6.04498 22.1204 5.994 22.2672 5.9928C22.5672 5.9928 22.8324 6.2064 22.8948 6.5004L27.966 30.2748C28.2417 31.5679 28.953 32.7271 29.9809 33.5587C31.0088 34.3902 32.291 34.8437 33.6132 34.8432H36.6252L44.5512 1.95964e-06Z" fill="#BBB6FD"/>
<path d="M90 1.95964e-06H85.0296C83.6496 1.95964e-06 82.3608 0.684002 81.5856 1.824L74.9376 11.6328C74.8967 11.6929 74.8416 11.7422 74.7773 11.7762C74.713 11.8102 74.6414 11.828 74.5686 11.828C74.4958 11.828 74.4242 11.8102 74.3599 11.7762C74.2956 11.7422 74.2405 11.6929 74.1996 11.6328L67.5516 1.8252C67.1709 1.26252 66.6579 0.801857 66.0576 0.483633C65.4574 0.165408 64.7882 -0.000658045 64.1088 1.95964e-06H59.1372L70.9812 17.472L59.2032 34.8444H64.1748C65.5536 34.8444 66.8424 34.1616 67.6164 33.0204L74.1996 23.3088C74.2405 23.2484 74.2956 23.199 74.36 23.1648C74.4244 23.1306 74.4963 23.1127 74.5692 23.1127C74.6421 23.1127 74.714 23.1306 74.7784 23.1648C74.8428 23.199 74.8979 23.2484 74.9388 23.3088L81.5208 33.0204C81.9018 33.583 82.415 34.0436 83.0155 34.3616C83.616 34.6796 84.2853 34.8454 84.9648 34.8444H89.9352L78.1572 17.472L90 1.95964e-06ZM48.9096 3.564V34.8444H51.2856C52.2308 34.8444 53.1374 34.4689 53.8057 33.8005C54.4741 33.1321 54.8496 32.2256 54.8496 31.2804V1.95964e-06H52.4736C51.5284 1.95964e-06 50.6219 0.375494 49.9535 1.04387C49.2851 1.71225 48.9096 2.61877 48.9096 3.564ZM44.5512 1.95964e-06H42.4368C41.3065 -0.000972905 40.2095 0.382576 39.3261 1.08762C38.4427 1.79266 37.8254 2.77726 37.5756 3.8796L32.8452 24.6732L28.7052 5.2632C27.9396 1.6752 24.258 -0.743998 20.4912 0.296402C18.0924 0.958802 16.314 2.9856 15.7944 5.4204L11.6964 24.648L6.9756 3.8808C6.724 2.77887 6.10589 1.79493 5.22239 1.08996C4.33889 0.384991 3.24229 0.000716237 2.112 1.95964e-06H0L7.9248 34.8432H10.9272C12.2495 34.8436 13.5319 34.39 14.5598 33.5582C15.5878 32.7264 16.2989 31.5669 16.5744 30.2736L21.6396 6.5016C21.6711 6.35825 21.7504 6.22985 21.8644 6.13742C21.9784 6.04498 22.1204 5.994 22.2672 5.9928C22.5672 5.9928 22.8324 6.2064 22.8948 6.5004L27.966 30.2748C28.2417 31.5679 28.953 32.7271 29.9809 33.5587C31.0088 34.3902 32.291 34.8437 33.6132 34.8432H36.6252L44.5512 1.95964e-06Z" fill="url(#paint0_linear_14147_242643)"/>
</g>
<defs>
<linearGradient id="paint0_linear_14147_242643" x1="45" y1="0" x2="45" y2="34.8444" gradientUnits="userSpaceOnUse">
<stop stop-color="white" stop-opacity="0.5"/>
<stop offset="1" stop-color="white" stop-opacity="0"/>
</linearGradient>
</defs>
</svg>
